<svg width="346" height="48" viewBox="0 0 346 48" fill="none" xmlns="http://www.w3.org/2000/svg">
<path d="M53.5596 29.14C52.6076 29.14 51.7723 28.93 51.0536 28.51C50.3443 28.09 49.7936 27.502 49.4016 26.746C49.0096 25.9807 48.8136 25.0847 48.8136 24.058C48.8136 23.022 49.0096 22.126 49.4016 21.37C49.7936 20.614 50.3443 20.0307 51.0536 19.62C51.763 19.2 52.5983 18.99 53.5596 18.99C54.521 18.99 55.3563 19.2 56.0656 19.62C56.775 20.0307 57.3256 20.614 57.7176 21.37C58.1096 22.126 58.3056 23.0173 58.3056 24.044C58.3056 25.08 58.1096 25.9807 57.7176 26.746C57.3256 27.502 56.775 28.09 56.0656 28.51C55.3563 28.93 54.521 29.14 53.5596 29.14ZM53.5596 27.6C54.465 27.6 55.1696 27.2873 55.6736 26.662C56.1776 26.0367 56.4296 25.1687 56.4296 24.058C56.4296 22.938 56.1776 22.07 55.6736 21.454C55.179 20.838 54.4743 20.53 53.5596 20.53C52.6543 20.53 51.9496 20.838 51.4456 21.454C50.9416 22.07 50.6896 22.938 50.6896 24.058C50.6896 25.1687 50.9416 26.0367 51.4456 26.662C51.9496 27.2873 52.6543 27.6 53.5596 27.6ZM64.0478 31.52V28.048C63.6931 28.776 63.0911 29.14 62.2418 29.14C61.7378 29.14 61.2945 28.9953 60.9118 28.706C60.5291 28.4073 60.2258 27.992 60.0018 27.46C59.7871 26.9187 59.6798 26.2887 59.6798 25.57C59.6798 24.842 59.7871 24.212 60.0018 23.68C60.2258 23.148 60.5291 22.7373 60.9118 22.448C61.2945 22.1587 61.7378 22.014 62.2418 22.014C62.6618 22.014 63.0258 22.112 63.3338 22.308C63.6418 22.4947 63.8798 22.7607 64.0478 23.106V19.13H65.7978V23.078C65.9658 22.742 66.2038 22.4807 66.5118 22.294C66.8291 22.1073 67.1885 22.014 67.5898 22.014C68.0938 22.014 68.5371 22.1587 68.9198 22.448C69.3118 22.7373 69.6151 23.148 69.8298 23.68C70.0445 24.212 70.1518 24.842 70.1518 25.57C70.1518 26.2887 70.0445 26.9187 69.8298 27.46C69.6151 27.992 69.3165 28.4073 68.9338 28.706C68.5511 28.9953 68.1031 29.14 67.5898 29.14C66.7685 29.14 66.1711 28.7807 65.7978 28.062V31.52H64.0478ZM62.7598 27.824C63.1611 27.824 63.4785 27.642 63.7118 27.278C63.9545 26.9047 64.0758 26.3353 64.0758 25.57C64.0758 24.814 63.9545 24.254 63.7118 23.89C63.4691 23.5167 63.1518 23.33 62.7598 23.33C62.3585 23.33 62.0365 23.5167 61.7938 23.89C61.5511 24.254 61.4298 24.814 61.4298 25.57C61.4298 26.3353 61.5511 26.9047 61.7938 27.278C62.0365 27.642 62.3585 27.824 62.7598 27.824ZM67.0718 27.824C67.4825 27.824 67.8045 27.642 68.0378 27.278C68.2805 26.9047 68.4018 26.3353 68.4018 25.57C68.4018 24.814 68.2805 24.254 68.0378 23.89C67.7951 23.5167 67.4731 23.33 67.0718 23.33C66.6705 23.33 66.3531 23.5167 66.1198 23.89C65.8865 24.254 65.7698 24.814 65.7698 25.57C65.7698 26.3353 65.8865 26.9047 66.1198 27.278C66.3531 27.642 66.6705 27.824 67.0718 27.824ZM74.9103 29.14C74.2009 29.14 73.5849 28.9953 73.0623 28.706C72.5396 28.4167 72.1336 28.006 71.8443 27.474C71.5549 26.9327 71.4103 26.298 71.4103 25.57C71.4103 24.842 71.5549 24.212 71.8443 23.68C72.1336 23.148 72.5396 22.7373 73.0623 22.448C73.5849 22.1587 74.2009 22.014 74.9103 22.014C75.6196 22.014 76.2356 22.1587 76.7583 22.448C77.2809 22.7373 77.6869 23.148 77.9763 23.68C78.2656 24.212 78.4103 24.842 78.4103 25.57C78.4103 26.298 78.2656 26.9327 77.9763 27.474C77.6869 28.006 77.2809 28.4167 76.7583 28.706C76.2356 28.9953 75.6196 29.14 74.9103 29.14ZM74.9103 27.81C75.4329 27.81 75.8529 27.6233 76.1703 27.25C76.4876 26.8673 76.6463 26.3073 76.6463 25.57C76.6463 24.8233 76.4876 24.268 76.1703 23.904C75.8529 23.5307 75.4329 23.344 74.9103 23.344C74.3876 23.344 73.9676 23.5307 73.6503 23.904C73.3329 24.268 73.1743 24.8233 73.1743 25.57C73.1743 26.3073 73.3329 26.8673 73.6503 27.25C73.9676 27.6233 74.3876 27.81 74.9103 27.81ZM80.0461 31.52V22.154H81.7541V23.246C81.9501 22.8727 82.2441 22.574 82.6361 22.35C83.0374 22.126 83.4901 22.014 83.9941 22.014C84.5914 22.014 85.1141 22.1587 85.5621 22.448C86.0194 22.7373 86.3741 23.148 86.6261 23.68C86.8781 24.2027 87.0041 24.8327 87.0041 25.57C87.0041 26.298 86.8781 26.9327 86.6261 27.474C86.3741 28.006 86.0241 28.4167 85.5761 28.706C85.1281 28.9953 84.6008 29.14 83.9941 29.14C83.5088 29.14 83.0701 29.0373 82.6781 28.832C82.2954 28.6173 82.0014 28.3327 81.7961 27.978V31.52H80.0461ZM83.5041 27.81C84.0268 27.81 84.4468 27.6233 84.7641 27.25C85.0814 26.8673 85.2401 26.3073 85.2401 25.57C85.2401 24.8233 85.0814 24.268 84.7641 23.904C84.4468 23.5307 84.0268 23.344 83.5041 23.344C82.9814 23.344 82.5614 23.5307 82.2441 23.904C81.9268 24.268 81.7681 24.8233 81.7681 25.57C81.7681 26.3073 81.9268 26.8673 82.2441 27.25C82.5614 27.6233 82.9814 27.81 83.5041 27.81ZM88.6317 29V22.154H90.0737L92.4397 26.2L94.8057 22.154H96.2337V29H94.6937V24.744L92.8457 27.88H92.0197L90.1717 24.744V29H88.6317ZM98.2157 29V22.154H99.7977V26.718L103.228 22.154H104.684V29H103.102V24.436L99.6717 29H98.2157ZM108.107 29V23.526H105.769V22.154H112.209V23.526H109.857V29H108.107ZM113.282 29V22.154H114.864V26.718L118.294 22.154H119.75V29H118.168V24.436L114.738 29H113.282ZM128.039 29.14C127.423 29.14 126.839 29.07 126.289 28.93C125.747 28.7807 125.295 28.5753 124.931 28.314L125.393 27.166C125.719 27.3993 126.116 27.5767 126.583 27.698C127.049 27.8193 127.521 27.88 127.997 27.88C128.575 27.88 128.995 27.81 129.257 27.67C129.518 27.53 129.649 27.3107 129.649 27.012C129.649 26.452 129.271 26.172 128.515 26.172H126.695V24.912H128.347C128.683 24.912 128.939 24.842 129.117 24.702C129.303 24.562 129.397 24.366 129.397 24.114C129.397 23.8433 129.28 23.638 129.047 23.498C128.823 23.3487 128.435 23.274 127.885 23.274C127.418 23.274 126.989 23.33 126.597 23.442C126.205 23.554 125.836 23.7127 125.491 23.918L125.029 22.798C125.831 22.2753 126.881 22.014 128.179 22.014C129.093 22.014 129.789 22.1867 130.265 22.532C130.75 22.868 130.993 23.3393 130.993 23.946C130.993 24.2913 130.895 24.5993 130.699 24.87C130.503 25.1313 130.237 25.3227 129.901 25.444C130.33 25.5467 130.661 25.738 130.895 26.018C131.128 26.298 131.245 26.6527 131.245 27.082C131.245 27.7073 130.969 28.2067 130.419 28.58C129.868 28.9533 129.075 29.14 128.039 29.14ZM136.482 29V22.154H138.19V23.204C138.395 22.8307 138.68 22.5413 139.044 22.336C139.408 22.1213 139.828 22.014 140.304 22.014C141.331 22.014 142.003 22.462 142.32 23.358C142.535 22.938 142.843 22.6113 143.244 22.378C143.645 22.1353 144.103 22.014 144.616 22.014C146.156 22.014 146.926 22.952 146.926 24.828V29H145.176V24.898C145.176 24.3753 145.087 23.9927 144.91 23.75C144.742 23.5073 144.453 23.386 144.042 23.386C143.585 23.386 143.225 23.5493 142.964 23.876C142.703 24.1933 142.572 24.6367 142.572 25.206V29H140.822V24.898C140.822 24.3753 140.733 23.9927 140.556 23.75C140.388 23.5073 140.103 23.386 139.702 23.386C139.245 23.386 138.885 23.5493 138.624 23.876C138.363 24.1933 138.232 24.6367 138.232 25.206V29H136.482ZM151.853 29.14C151.144 29.14 150.528 28.9953 150.005 28.706C149.483 28.4167 149.077 28.006 148.787 27.474C148.498 26.9327 148.353 26.298 148.353 25.57C148.353 24.842 148.498 24.212 148.787 23.68C149.077 23.148 149.483 22.7373 150.005 22.448C150.528 22.1587 151.144 22.014 151.853 22.014C152.563 22.014 153.179 22.1587 153.701 22.448C154.224 22.7373 154.63 23.148 154.919 23.68C155.209 24.212 155.353 24.842 155.353 25.57C155.353 26.298 155.209 26.9327 154.919 27.474C154.63 28.006 154.224 28.4167 153.701 28.706C153.179 28.9953 152.563 29.14 151.853 29.14ZM151.853 27.81C152.376 27.81 152.796 27.6233 153.113 27.25C153.431 26.8673 153.589 26.3073 153.589 25.57C153.589 24.8233 153.431 24.268 153.113 23.904C152.796 23.5307 152.376 23.344 151.853 23.344C151.331 23.344 150.911 23.5307 150.593 23.904C150.276 24.268 150.117 24.8233 150.117 25.57C150.117 26.3073 150.276 26.8673 150.593 27.25C150.911 27.6233 151.331 27.81 151.853 27.81ZM156.798 29V22.154H158.506V23.218C158.739 22.826 159.052 22.5273 159.444 22.322C159.845 22.1167 160.293 22.014 160.788 22.014C162.402 22.014 163.21 22.952 163.21 24.828V29H161.46V24.912C161.46 24.38 161.357 23.9927 161.152 23.75C160.956 23.5073 160.648 23.386 160.228 23.386C159.714 23.386 159.304 23.5493 158.996 23.876C158.697 24.1933 158.548 24.618 158.548 25.15V29H156.798ZM168.109 29.14C167.4 29.14 166.784 28.9953 166.261 28.706C165.738 28.4167 165.332 28.006 165.043 27.474C164.754 26.9327 164.609 26.298 164.609 25.57C164.609 24.842 164.754 24.212 165.043 23.68C165.332 23.148 165.738 22.7373 166.261 22.448C166.784 22.1587 167.4 22.014 168.109 22.014C168.818 22.014 169.434 22.1587 169.957 22.448C170.48 22.7373 170.886 23.148 171.175 23.68C171.464 24.212 171.609 24.842 171.609 25.57C171.609 26.298 171.464 26.9327 171.175 27.474C170.886 28.006 170.48 28.4167 169.957 28.706C169.434 28.9953 168.818 29.14 168.109 29.14ZM168.109 27.81C168.632 27.81 169.052 27.6233 169.369 27.25C169.686 26.8673 169.845 26.3073 169.845 25.57C169.845 24.8233 169.686 24.268 169.369 23.904C169.052 23.5307 168.632 23.344 168.109 23.344C167.586 23.344 167.166 23.5307 166.849 23.904C166.532 24.268 166.373 24.8233 166.373 25.57C166.373 26.3073 166.532 26.8673 166.849 27.25C167.166 27.6233 167.586 27.81 168.109 27.81ZM176.827 31.52V22.154H178.535V23.246C178.731 22.8727 179.025 22.574 179.417 22.35C179.818 22.126 180.271 22.014 180.775 22.014C181.372 22.014 181.895 22.1587 182.343 22.448C182.8 22.7373 183.155 23.148 183.407 23.68C183.659 24.2027 183.785 24.8327 183.785 25.57C183.785 26.298 183.659 26.9327 183.407 27.474C183.155 28.006 182.805 28.4167 182.357 28.706C181.909 28.9953 181.382 29.14 180.775 29.14C180.29 29.14 179.851 29.0373 179.459 28.832C179.076 28.6173 178.782 28.3327 178.577 27.978V31.52H176.827ZM180.285 27.81C180.808 27.81 181.228 27.6233 181.545 27.25C181.862 26.8673 182.021 26.3073 182.021 25.57C182.021 24.8233 181.862 24.268 181.545 23.904C181.228 23.5307 180.808 23.344 180.285 23.344C179.762 23.344 179.342 23.5307 179.025 23.904C178.708 24.268 178.549 24.8233 178.549 25.57C178.549 26.3073 178.708 26.8673 179.025 27.25C179.342 27.6233 179.762 27.81 180.285 27.81ZM187.476 29.14C186.981 29.14 186.538 29.0467 186.146 28.86C185.763 28.664 185.46 28.4027 185.236 28.076C185.021 27.7493 184.914 27.3807 184.914 26.97C184.914 26.466 185.044 26.0693 185.306 25.78C185.567 25.4813 185.992 25.2667 186.58 25.136C187.168 25.0053 187.956 24.94 188.946 24.94H189.436V24.646C189.436 24.1793 189.333 23.8433 189.128 23.638C188.922 23.4327 188.577 23.33 188.092 23.33C187.709 23.33 187.317 23.3907 186.916 23.512C186.514 23.624 186.108 23.8013 185.698 24.044L185.194 22.854C185.436 22.686 185.721 22.5413 186.048 22.42C186.384 22.2893 186.734 22.1913 187.098 22.126C187.471 22.0513 187.821 22.014 188.148 22.014C189.146 22.014 189.888 22.2473 190.374 22.714C190.859 23.1713 191.102 23.8853 191.102 24.856V29H189.464V27.908C189.305 28.2907 189.053 28.594 188.708 28.818C188.362 29.0327 187.952 29.14 187.476 29.14ZM187.84 27.936C188.297 27.936 188.675 27.7773 188.974 27.46C189.282 27.1427 189.436 26.7413 189.436 26.256V25.948H188.96C188.082 25.948 187.471 26.018 187.126 26.158C186.79 26.2887 186.622 26.5313 186.622 26.886C186.622 27.194 186.729 27.446 186.944 27.642C187.158 27.838 187.457 27.936 187.84 27.936ZM193.425 31.52L194.685 28.72L191.843 22.154H193.705L195.623 26.942L197.583 22.154H199.347L195.231 31.52H193.425ZM207.116 29.14C206.397 29.14 205.772 28.9953 205.24 28.706C204.708 28.4073 204.297 27.9873 204.008 27.446C203.719 26.9047 203.574 26.27 203.574 25.542C203.574 24.814 203.719 24.1887 204.008 23.666C204.297 23.134 204.708 22.728 205.24 22.448C205.772 22.1587 206.397 22.014 207.116 22.014C207.555 22.014 207.989 22.084 208.418 22.224C208.847 22.364 209.202 22.56 209.482 22.812L208.964 24.03C208.721 23.8153 208.446 23.652 208.138 23.54C207.839 23.428 207.55 23.372 207.27 23.372C206.663 23.372 206.192 23.5633 205.856 23.946C205.529 24.3193 205.366 24.856 205.366 25.556C205.366 26.2467 205.529 26.7927 205.856 27.194C206.192 27.586 206.663 27.782 207.27 27.782C207.541 27.782 207.83 27.726 208.138 27.614C208.446 27.502 208.721 27.334 208.964 27.11L209.482 28.342C209.202 28.5847 208.843 28.7807 208.404 28.93C207.975 29.07 207.545 29.14 207.116 29.14ZM210.556 29V19.13H212.306V23.148C212.539 22.7747 212.852 22.4947 213.244 22.308C213.636 22.112 214.07 22.014 214.546 22.014C216.16 22.014 216.968 22.952 216.968 24.828V29H215.218V24.912C215.218 24.38 215.115 23.9927 214.91 23.75C214.714 23.5073 214.406 23.386 213.986 23.386C213.472 23.386 213.062 23.5493 212.754 23.876C212.455 24.1933 212.306 24.618 212.306 25.15V29H210.556ZM222.119 29.14C221.344 29.14 220.677 28.9953 220.117 28.706C219.557 28.4167 219.123 28.006 218.815 27.474C218.516 26.942 218.367 26.312 218.367 25.584C218.367 24.8747 218.512 24.254 218.801 23.722C219.1 23.19 219.506 22.7747 220.019 22.476C220.542 22.168 221.134 22.014 221.797 22.014C222.768 22.014 223.533 22.322 224.093 22.938C224.662 23.554 224.947 24.394 224.947 25.458V25.976H220.047C220.178 27.1987 220.878 27.81 222.147 27.81C222.53 27.81 222.912 27.754 223.295 27.642C223.678 27.5207 224.028 27.334 224.345 27.082L224.835 28.258C224.508 28.5287 224.098 28.7433 223.603 28.902C223.108 29.0607 222.614 29.14 222.119 29.14ZM221.867 23.204C221.354 23.204 220.938 23.3627 220.621 23.68C220.304 23.9973 220.112 24.4267 220.047 24.968H223.491C223.454 24.3987 223.295 23.9647 223.015 23.666C222.744 23.358 222.362 23.204 221.867 23.204ZM229.497 29.14C228.778 29.14 228.153 28.9953 227.621 28.706C227.089 28.4073 226.678 27.9873 226.389 27.446C226.1 26.9047 225.955 26.27 225.955 25.542C225.955 24.814 226.1 24.1887 226.389 23.666C226.678 23.134 227.089 22.728 227.621 22.448C228.153 22.1587 228.778 22.014 229.497 22.014C229.936 22.014 230.37 22.084 230.799 22.224C231.228 22.364 231.583 22.56 231.863 22.812L231.345 24.03C231.102 23.8153 230.827 23.652 230.519 23.54C230.22 23.428 229.931 23.372 229.651 23.372C229.044 23.372 228.573 23.5633 228.237 23.946C227.91 24.3193 227.747 24.856 227.747 25.556C227.747 26.2467 227.91 26.7927 228.237 27.194C228.573 27.586 229.044 27.782 229.651 27.782C229.922 27.782 230.211 27.726 230.519 27.614C230.827 27.502 231.102 27.334 231.345 27.11L231.863 28.342C231.583 28.5847 231.224 28.7807 230.785 28.93C230.356 29.07 229.926 29.14 229.497 29.14ZM232.936 29V19.13H234.686V25.066H234.714L237.472 22.154H239.586L236.478 25.43L239.782 29H237.64L234.714 25.948H234.686V29H232.936ZM243.428 29.14C242.718 29.14 242.102 28.9953 241.58 28.706C241.057 28.4167 240.651 28.006 240.362 27.474C240.072 26.9327 239.928 26.298 239.928 25.57C239.928 24.842 240.072 24.212 240.362 23.68C240.651 23.148 241.057 22.7373 241.58 22.448C242.102 22.1587 242.718 22.014 243.428 22.014C244.137 22.014 244.753 22.1587 245.276 22.448C245.798 22.7373 246.204 23.148 246.494 23.68C246.783 24.212 246.928 24.842 246.928 25.57C246.928 26.298 246.783 26.9327 246.494 27.474C246.204 28.006 245.798 28.4167 245.276 28.706C244.753 28.9953 244.137 29.14 243.428 29.14ZM243.428 27.81C243.95 27.81 244.37 27.6233 244.688 27.25C245.005 26.8673 245.164 26.3073 245.164 25.57C245.164 24.8233 245.005 24.268 244.688 23.904C244.37 23.5307 243.95 23.344 243.428 23.344C242.905 23.344 242.485 23.5307 242.168 23.904C241.85 24.268 241.692 24.8233 241.692 25.57C241.692 26.3073 241.85 26.8673 242.168 27.25C242.485 27.6233 242.905 27.81 243.428 27.81ZM250.85 29.14C249.17 29.14 248.33 28.1973 248.33 26.312V22.154H250.08V26.34C250.08 26.8253 250.178 27.1847 250.374 27.418C250.57 27.6513 250.883 27.768 251.312 27.768C251.779 27.768 252.161 27.6093 252.46 27.292C252.759 26.9653 252.908 26.536 252.908 26.004V22.154H254.658V29H252.95V27.978C252.493 28.7527 251.793 29.14 250.85 29.14ZM259.615 29.14C257.805 29.14 256.899 28.244 256.899 26.452V23.47H255.583V22.154H256.899V20.11H258.649V22.154H260.721V23.47H258.649V26.354C258.649 26.802 258.747 27.138 258.943 27.362C259.139 27.586 259.457 27.698 259.895 27.698C260.026 27.698 260.161 27.684 260.301 27.656C260.441 27.6187 260.586 27.5813 260.735 27.544L261.001 28.832C260.833 28.9253 260.619 29 260.357 29.056C260.105 29.112 259.858 29.14 259.615 29.14Z" fill="white"/>
<rect width="346" height="48" rx="8" fill="black"/>
<line x1="188.5" y1="20.5" x2="188.5" y2="29.5" stroke="white" stroke-opacity="0.28" stroke-linecap="round"/>
<path fill-rule="evenodd" clip-rule="evenodd" d="M179.661 22.4619C180.065 21.9908 180.54 21.5862 181.069 21.2638L181.427 21.0459C181.602 20.9395 181.828 21.0261 181.89 21.2228L182.051 21.7326C182.351 22.6806 182.506 23.6693 182.513 24.6647C182.783 25.077 183 25.4458 183 26.0567C183 28.0566 181.158 29.6292 178.871 29.9454L178.852 29.9479L178 30L177.148 29.9479L177.129 29.9454C174.842 29.6292 173 28.0566 173 26.0567C173 25.4949 173.254 25.0643 173.492 24.6725C173.5 23.6647 173.658 22.6637 173.959 21.7032L174.109 21.2252C174.171 21.0272 174.399 20.9399 174.574 21.0468L175.075 21.3516C175.573 21.6549 176.017 22.0399 176.389 22.4902C176.423 22.4753 176.456 22.4606 176.489 22.4461C176.684 22.3595 176.856 22.2835 177.029 22.2292C177.294 22.1464 177.572 22.1086 178 22.1086C178.755 22.1086 179.132 22.243 179.661 22.4619Z" fill="white"/>
<path d="M193.84 29V22.126H195.912V23.12C196.117 22.7653 196.397 22.49 196.752 22.294C197.116 22.0887 197.536 21.986 198.012 21.986C198.497 21.986 198.908 22.0933 199.244 22.308C199.589 22.5227 199.851 22.8493 200.028 23.288C200.243 22.8773 200.551 22.56 200.952 22.336C201.363 22.1027 201.815 21.986 202.31 21.986C203.094 21.986 203.677 22.224 204.06 22.7C204.443 23.1667 204.634 23.89 204.634 24.87V29H202.52V24.94C202.52 24.4827 202.445 24.1513 202.296 23.946C202.156 23.7313 201.913 23.624 201.568 23.624C201.167 23.624 200.854 23.764 200.63 24.044C200.406 24.324 200.294 24.7207 200.294 25.234V29H198.18V24.94C198.18 24.4827 198.105 24.1513 197.956 23.946C197.807 23.7313 197.564 23.624 197.228 23.624C196.827 23.624 196.514 23.764 196.29 24.044C196.066 24.324 195.954 24.7207 195.954 25.234V29H193.84ZM209.557 29.154C208.82 29.154 208.176 29.0093 207.625 28.72C207.084 28.4213 206.664 28.006 206.365 27.474C206.067 26.9327 205.917 26.2933 205.917 25.556C205.917 24.828 206.067 24.198 206.365 23.666C206.664 23.1247 207.084 22.7093 207.625 22.42C208.176 22.1307 208.82 21.986 209.557 21.986C210.295 21.986 210.934 22.1307 211.475 22.42C212.026 22.7093 212.451 23.1247 212.749 23.666C213.057 24.198 213.211 24.828 213.211 25.556C213.211 26.2933 213.057 26.9327 212.749 27.474C212.451 28.006 212.026 28.4213 211.475 28.72C210.934 29.0093 210.295 29.154 209.557 29.154ZM209.557 27.572C210.005 27.572 210.369 27.4087 210.649 27.082C210.939 26.7553 211.083 26.2467 211.083 25.556C211.083 24.8747 210.939 24.3753 210.649 24.058C210.369 23.7313 210.005 23.568 209.557 23.568C209.109 23.568 208.745 23.7313 208.465 24.058C208.185 24.3753 208.045 24.8747 208.045 25.556C208.045 26.2467 208.185 26.7553 208.465 27.082C208.745 27.4087 209.109 27.572 209.557 27.572ZM214.498 29V22.126H216.57V23.134C216.803 22.7607 217.116 22.476 217.508 22.28C217.9 22.084 218.338 21.986 218.824 21.986C219.636 21.986 220.242 22.224 220.644 22.7C221.045 23.1667 221.246 23.89 221.246 24.87V29H219.132V24.968C219.132 24.492 219.043 24.1513 218.866 23.946C218.688 23.7313 218.427 23.624 218.082 23.624C217.634 23.624 217.274 23.764 217.004 24.044C216.742 24.324 216.612 24.6973 216.612 25.164V29H214.498ZM226.128 29.154C225.39 29.154 224.746 29.0093 224.196 28.72C223.654 28.4213 223.234 28.006 222.936 27.474C222.637 26.9327 222.488 26.2933 222.488 25.556C222.488 24.828 222.637 24.198 222.936 23.666C223.234 23.1247 223.654 22.7093 224.196 22.42C224.746 22.1307 225.39 21.986 226.128 21.986C226.865 21.986 227.504 22.1307 228.046 22.42C228.596 22.7093 229.021 23.1247 229.32 23.666C229.628 24.198 229.782 24.828 229.782 25.556C229.782 26.2933 229.628 26.9327 229.32 27.474C229.021 28.006 228.596 28.4213 228.046 28.72C227.504 29.0093 226.865 29.154 226.128 29.154ZM226.128 27.572C226.576 27.572 226.94 27.4087 227.22 27.082C227.509 26.7553 227.654 26.2467 227.654 25.556C227.654 24.8747 227.509 24.3753 227.22 24.058C226.94 23.7313 226.576 23.568 226.128 23.568C225.68 23.568 225.316 23.7313 225.036 24.058C224.756 24.3753 224.616 24.8747 224.616 25.556C224.616 26.2467 224.756 26.7553 225.036 27.082C225.316 27.4087 225.68 27.572 226.128 27.572ZM238.31 29.154C237.564 29.154 236.91 29.0093 236.35 28.72C235.8 28.4213 235.375 28.0013 235.076 27.46C234.778 26.9187 234.628 26.2793 234.628 25.542C234.628 24.8047 234.778 24.17 235.076 23.638C235.375 23.106 235.8 22.7 236.35 22.42C236.91 22.1307 237.564 21.986 238.31 21.986C238.749 21.986 239.192 22.0513 239.64 22.182C240.088 22.3127 240.452 22.4993 240.732 22.742L240.144 24.198C239.911 24.0113 239.65 23.8667 239.36 23.764C239.071 23.652 238.791 23.596 238.52 23.596C237.97 23.596 237.54 23.7687 237.232 24.114C236.934 24.45 236.784 24.9307 236.784 25.556C236.784 26.172 236.934 26.6573 237.232 27.012C237.54 27.3573 237.97 27.53 238.52 27.53C238.782 27.53 239.057 27.4787 239.346 27.376C239.645 27.2733 239.911 27.124 240.144 26.928L240.732 28.384C240.452 28.6267 240.088 28.818 239.64 28.958C239.192 29.0887 238.749 29.154 238.31 29.154ZM241.65 29V19.13H243.764V23.064C244.007 22.7093 244.319 22.4433 244.702 22.266C245.085 22.0793 245.509 21.986 245.976 21.986C247.591 21.986 248.398 22.9473 248.398 24.87V29H246.284V24.968C246.284 24.492 246.195 24.1513 246.018 23.946C245.841 23.7313 245.579 23.624 245.234 23.624C244.786 23.624 244.427 23.764 244.156 24.044C243.895 24.324 243.764 24.6973 243.764 25.164V29H241.65ZM253.546 29.154C252.734 29.154 252.034 29.0093 251.446 28.72C250.867 28.4213 250.419 28.006 250.102 27.474C249.794 26.9327 249.64 26.298 249.64 25.57C249.64 24.8607 249.789 24.24 250.088 23.708C250.396 23.1667 250.811 22.7467 251.334 22.448C251.866 22.14 252.477 21.986 253.168 21.986C254.167 21.986 254.96 22.3033 255.548 22.938C256.136 23.5633 256.43 24.4127 256.43 25.486V26.018H251.656C251.731 26.5593 251.927 26.956 252.244 27.208C252.571 27.4507 253.019 27.572 253.588 27.572C253.961 27.572 254.339 27.516 254.722 27.404C255.105 27.292 255.45 27.1193 255.758 26.886L256.318 28.3C255.973 28.5613 255.548 28.7713 255.044 28.93C254.549 29.0793 254.05 29.154 253.546 29.154ZM253.252 23.386C252.804 23.386 252.44 23.5213 252.16 23.792C251.889 24.0627 251.721 24.4407 251.656 24.926H254.68C254.624 23.8993 254.148 23.386 253.252 23.386ZM261.006 29.154C260.259 29.154 259.606 29.0093 259.046 28.72C258.495 28.4213 258.07 28.0013 257.772 27.46C257.473 26.9187 257.324 26.2793 257.324 25.542C257.324 24.8047 257.473 24.17 257.772 23.638C258.07 23.106 258.495 22.7 259.046 22.42C259.606 22.1307 260.259 21.986 261.006 21.986C261.444 21.986 261.888 22.0513 262.336 22.182C262.784 22.3127 263.148 22.4993 263.428 22.742L262.84 24.198C262.606 24.0113 262.345 23.8667 262.056 23.764C261.766 23.652 261.486 23.596 261.216 23.596C260.665 23.596 260.236 23.7687 259.928 24.114C259.629 24.45 259.48 24.9307 259.48 25.556C259.48 26.172 259.629 26.6573 259.928 27.012C260.236 27.3573 260.665 27.53 261.216 27.53C261.477 27.53 261.752 27.4787 262.042 27.376C262.34 27.2733 262.606 27.124 262.84 26.928L263.428 28.384C263.148 28.6267 262.784 28.818 262.336 28.958C261.888 29.0887 261.444 29.154 261.006 29.154ZM264.345 29V19.13H266.459V24.968H266.487L269.021 22.126H271.527L268.615 25.416L271.667 29H269.119L266.487 26.032H266.459V29H264.345ZM275.346 29.154C274.609 29.154 273.965 29.0093 273.414 28.72C272.873 28.4213 272.453 28.006 272.154 27.474C271.856 26.9327 271.706 26.2933 271.706 25.556C271.706 24.828 271.856 24.198 272.154 23.666C272.453 23.1247 272.873 22.7093 273.414 22.42C273.965 22.1307 274.609 21.986 275.346 21.986C276.084 21.986 276.723 22.1307 277.264 22.42C277.815 22.7093 278.24 23.1247 278.538 23.666C278.846 24.198 279 24.828 279 25.556C279 26.2933 278.846 26.9327 278.538 27.474C278.24 28.006 277.815 28.4213 277.264 28.72C276.723 29.0093 276.084 29.154 275.346 29.154ZM275.346 27.572C275.794 27.572 276.158 27.4087 276.438 27.082C276.728 26.7553 276.872 26.2467 276.872 25.556C276.872 24.8747 276.728 24.3753 276.438 24.058C276.158 23.7313 275.794 23.568 275.346 23.568C274.898 23.568 274.534 23.7313 274.254 24.058C273.974 24.3753 273.834 24.8747 273.834 25.556C273.834 26.2467 273.974 26.7553 274.254 27.082C274.534 27.4087 274.898 27.572 275.346 27.572ZM282.821 29.154C281.943 29.154 281.295 28.9113 280.875 28.426C280.464 27.9407 280.259 27.2127 280.259 26.242V22.126H282.373V26.298C282.373 27.11 282.723 27.516 283.423 27.516C283.824 27.516 284.151 27.376 284.403 27.096C284.664 26.8067 284.795 26.4287 284.795 25.962V22.126H286.909V29H284.851V28.062C284.393 28.79 283.717 29.154 282.821 29.154ZM291.918 29.154C289.986 29.154 289.02 28.216 289.02 26.34V23.708H287.718V22.126H289.02V20.11H291.134V22.126H293.164V23.708H291.134V26.256C291.134 26.648 291.223 26.942 291.4 27.138C291.587 27.334 291.881 27.432 292.282 27.432C292.404 27.432 292.53 27.418 292.66 27.39C292.8 27.362 292.95 27.3247 293.108 27.278L293.416 28.818C293.22 28.9207 292.987 29 292.716 29.056C292.446 29.1213 292.18 29.154 291.918 29.154Z" fill="white"/>
<path d="M55.432 29.126C54.4893 29.126 53.6727 28.9207 52.982 28.51C52.2913 28.09 51.7547 27.502 51.372 26.746C50.9987 25.9807 50.812 25.0847 50.812 24.058C50.812 23.022 50.9987 22.126 51.372 21.37C51.7547 20.614 52.2913 20.0307 52.982 19.62C53.6727 19.2093 54.4893 19.004 55.432 19.004C56.3653 19.004 57.1773 19.2093 57.868 19.62C58.568 20.0307 59.1047 20.614 59.478 21.37C59.8607 22.126 60.052 23.0173 60.052 24.044C60.052 25.08 59.8607 25.9807 59.478 26.746C59.1047 27.502 58.568 28.09 57.868 28.51C57.1773 28.9207 56.3653 29.126 55.432 29.126ZM55.432 27.866C56.412 27.866 57.1727 27.5347 57.714 26.872C58.2647 26.2 58.54 25.262 58.54 24.058C58.54 22.854 58.2693 21.9207 57.728 21.258C57.1867 20.5953 56.4213 20.264 55.432 20.264C54.452 20.264 53.6867 20.5953 53.136 21.258C52.5947 21.9207 52.324 22.854 52.324 24.058C52.324 25.262 52.5947 26.2 53.136 26.872C53.6867 27.5347 54.452 27.866 55.432 27.866ZM65.8535 31.52V27.964C65.4988 28.7387 64.8921 29.126 64.0335 29.126C63.5388 29.126 63.1001 28.9813 62.7175 28.692C62.3441 28.4027 62.0501 27.992 61.8355 27.46C61.6301 26.928 61.5275 26.3027 61.5275 25.584C61.5275 24.856 61.6301 24.2307 61.8355 23.708C62.0501 23.176 62.3441 22.7653 62.7175 22.476C63.1001 22.1867 63.5388 22.042 64.0335 22.042C64.4628 22.042 64.8315 22.1447 65.1395 22.35C65.4475 22.5553 65.6855 22.84 65.8535 23.204V19.13H67.2675V23.19C67.4355 22.826 67.6735 22.546 67.9815 22.35C68.2895 22.1447 68.6535 22.042 69.0735 22.042C69.5681 22.042 70.0021 22.1867 70.3755 22.476C70.7581 22.7653 71.0521 23.176 71.2575 23.708C71.4721 24.2307 71.5795 24.856 71.5795 25.584C71.5795 26.3027 71.4721 26.928 71.2575 27.46C71.0521 27.992 70.7628 28.4027 70.3895 28.692C70.0161 28.9813 69.5775 29.126 69.0735 29.126C68.2335 29.126 67.6315 28.7433 67.2675 27.978V31.52H65.8535ZM64.4115 28.048C64.8595 28.048 65.2141 27.8427 65.4755 27.432C65.7461 27.0213 65.8815 26.4053 65.8815 25.584C65.8815 24.772 65.7461 24.1607 65.4755 23.75C65.2141 23.3393 64.8595 23.134 64.4115 23.134C63.9728 23.134 63.6181 23.3393 63.3475 23.75C63.0768 24.1607 62.9415 24.772 62.9415 25.584C62.9415 26.4053 63.0721 27.0213 63.3335 27.432C63.6041 27.8427 63.9635 28.048 64.4115 28.048ZM68.6955 28.048C69.1435 28.048 69.4981 27.8427 69.7595 27.432C70.0301 27.0213 70.1655 26.4053 70.1655 25.584C70.1655 24.772 70.0301 24.1607 69.7595 23.75C69.4981 23.3393 69.1435 23.134 68.6955 23.134C68.2475 23.134 67.8928 23.3393 67.6315 23.75C67.3701 24.1607 67.2395 24.772 67.2395 25.584C67.2395 26.4053 67.3701 27.0213 67.6315 27.432C67.8928 27.8427 68.2475 28.048 68.6955 28.048ZM76.3038 29.126C75.6131 29.126 75.0158 28.9813 74.5118 28.692C74.0078 28.4027 73.6158 27.9967 73.3358 27.474C73.0651 26.942 72.9298 26.312 72.9298 25.584C72.9298 24.856 73.0651 24.2307 73.3358 23.708C73.6158 23.176 74.0078 22.7653 74.5118 22.476C75.0158 22.1867 75.6131 22.042 76.3038 22.042C76.9758 22.042 77.5638 22.1867 78.0678 22.476C78.5718 22.7653 78.9638 23.176 79.2438 23.708C79.5238 24.2307 79.6638 24.856 79.6638 25.584C79.6638 26.312 79.5238 26.942 79.2438 27.474C78.9638 27.9967 78.5718 28.4027 78.0678 28.692C77.5638 28.9813 76.9758 29.126 76.3038 29.126ZM76.3038 28.034C76.8825 28.034 77.3491 27.824 77.7038 27.404C78.0585 26.984 78.2358 26.3773 78.2358 25.584C78.2358 24.7907 78.0585 24.1887 77.7038 23.778C77.3491 23.358 76.8825 23.148 76.3038 23.148C75.7158 23.148 75.2445 23.358 74.8898 23.778C74.5351 24.1887 74.3578 24.7907 74.3578 25.584C74.3578 26.3773 74.5351 26.984 74.8898 27.404C75.2445 27.824 75.7158 28.034 76.3038 28.034ZM81.4159 31.52V22.168H82.8019V23.33C82.9979 22.938 83.2966 22.6253 83.6979 22.392C84.0992 22.1587 84.5612 22.042 85.0839 22.042C85.6906 22.042 86.2179 22.1867 86.6659 22.476C87.1232 22.7653 87.4732 23.176 87.7159 23.708C87.9679 24.2307 88.0939 24.856 88.0939 25.584C88.0939 26.312 87.9679 26.942 87.7159 27.474C87.4732 28.006 87.1232 28.4167 86.6659 28.706C86.2179 28.986 85.6906 29.126 85.0839 29.126C84.5799 29.126 84.1272 29.0187 83.7259 28.804C83.3339 28.58 83.0352 28.2767 82.8299 27.894V31.52H81.4159ZM84.7339 28.034C85.3219 28.034 85.7886 27.824 86.1339 27.404C86.4886 26.984 86.6659 26.3773 86.6659 25.584C86.6659 24.7907 86.4886 24.1887 86.1339 23.778C85.7886 23.358 85.3219 23.148 84.7339 23.148C84.1459 23.148 83.6746 23.358 83.3199 23.778C82.9746 24.1887 82.8019 24.7907 82.8019 25.584C82.8019 26.3773 82.9746 26.984 83.3199 27.404C83.6746 27.824 84.1459 28.034 84.7339 28.034ZM89.8238 29V22.168H90.9858L93.4638 26.494L95.9278 22.168H97.0898V29H95.8438V24.366L93.7998 27.894H93.1138L91.0698 24.366V29H89.8238ZM99.2163 29V22.168H100.504V27.124L104.2 22.168H105.39V29H104.102V24.058L100.406 29H99.2163ZM108.943 29V23.302H106.535V22.168H112.779V23.302H110.357V29H108.943ZM113.914 29V22.168H115.202V27.124L118.898 22.168H120.088V29H118.8V24.058L115.104 29H113.914ZM130.23 29V26.368C129.726 26.6573 129.157 26.802 128.522 26.802C127.533 26.802 126.8 26.564 126.324 26.088C125.848 25.612 125.61 24.8887 125.61 23.918V22.168H127.024V23.806C127.024 24.45 127.155 24.9167 127.416 25.206C127.687 25.4953 128.13 25.64 128.746 25.64C129.045 25.64 129.311 25.6073 129.544 25.542C129.778 25.4767 130.002 25.3647 130.216 25.206V22.168H131.63V29H130.23ZM136.972 29.126C135.852 29.126 134.97 28.8133 134.326 28.188C133.682 27.5533 133.36 26.69 133.36 25.598C133.36 24.898 133.5 24.282 133.78 23.75C134.069 23.2087 134.466 22.7887 134.97 22.49C135.474 22.1913 136.052 22.042 136.706 22.042C137.648 22.042 138.39 22.3453 138.932 22.952C139.473 23.5493 139.744 24.3753 139.744 25.43V25.906H134.732C134.834 27.3247 135.586 28.034 136.986 28.034C137.378 28.034 137.76 27.9733 138.134 27.852C138.516 27.7307 138.876 27.53 139.212 27.25L139.632 28.23C139.324 28.51 138.927 28.7293 138.442 28.888C137.956 29.0467 137.466 29.126 136.972 29.126ZM136.762 23.036C136.174 23.036 135.707 23.218 135.362 23.582C135.016 23.946 134.806 24.4313 134.732 25.038H138.554C138.526 24.4033 138.358 23.9133 138.05 23.568C137.742 23.2133 137.312 23.036 136.762 23.036ZM141.435 31.52V22.168H142.821V23.33C143.017 22.938 143.316 22.6253 143.717 22.392C144.119 22.1587 144.581 22.042 145.103 22.042C145.71 22.042 146.237 22.1867 146.685 22.476C147.143 22.7653 147.493 23.176 147.735 23.708C147.987 24.2307 148.113 24.856 148.113 25.584C148.113 26.312 147.987 26.942 147.735 27.474C147.493 28.006 147.143 28.4167 146.685 28.706C146.237 28.986 145.71 29.126 145.103 29.126C144.599 29.126 144.147 29.0187 143.745 28.804C143.353 28.58 143.055 28.2767 142.849 27.894V31.52H141.435ZM144.753 28.034C145.341 28.034 145.808 27.824 146.153 27.404C146.508 26.984 146.685 26.3773 146.685 25.584C146.685 24.7907 146.508 24.1887 146.153 23.778C145.808 23.358 145.341 23.148 144.753 23.148C144.165 23.148 143.694 23.358 143.339 23.778C142.994 24.1887 142.821 24.7907 142.821 25.584C142.821 26.3773 142.994 26.984 143.339 27.404C143.694 27.824 144.165 28.034 144.753 28.034ZM153.063 29.126C151.943 29.126 151.061 28.8133 150.417 28.188C149.773 27.5533 149.451 26.69 149.451 25.598C149.451 24.898 149.591 24.282 149.871 23.75C150.161 23.2087 150.557 22.7887 151.061 22.49C151.565 22.1913 152.144 22.042 152.797 22.042C153.74 22.042 154.482 22.3453 155.023 22.952C155.565 23.5493 155.835 24.3753 155.835 25.43V25.906H150.823C150.926 27.3247 151.677 28.034 153.077 28.034C153.469 28.034 153.852 27.9733 154.225 27.852C154.608 27.7307 154.967 27.53 155.303 27.25L155.723 28.23C155.415 28.51 155.019 28.7293 154.533 28.888C154.048 29.0467 153.558 29.126 153.063 29.126ZM152.853 23.036C152.265 23.036 151.799 23.218 151.453 23.582C151.108 23.946 150.898 24.4313 150.823 25.038H154.645C154.617 24.4033 154.449 23.9133 154.141 23.568C153.833 23.2133 153.404 23.036 152.853 23.036ZM159.893 29.126C159.296 29.126 158.731 29.056 158.199 28.916C157.667 28.7667 157.233 28.552 156.897 28.272L157.303 27.32C157.63 27.572 158.017 27.7633 158.465 27.894C158.923 28.0153 159.389 28.076 159.865 28.076C160.491 28.076 160.943 27.992 161.223 27.824C161.503 27.656 161.643 27.3993 161.643 27.054C161.643 26.3913 161.214 26.06 160.355 26.06H158.647V25.024H160.201C160.575 25.024 160.869 24.9447 161.083 24.786C161.298 24.618 161.405 24.3847 161.405 24.086C161.405 23.778 161.279 23.5353 161.027 23.358C160.785 23.1807 160.379 23.092 159.809 23.092C159.343 23.092 158.913 23.1527 158.521 23.274C158.129 23.386 157.756 23.5587 157.401 23.792L156.995 22.854C157.779 22.3127 158.787 22.042 160.019 22.042C160.906 22.042 161.573 22.2147 162.021 22.56C162.479 22.896 162.707 23.3627 162.707 23.96C162.707 24.3147 162.609 24.6273 162.413 24.898C162.217 25.1593 161.947 25.3507 161.601 25.472C162.021 25.5653 162.353 25.7567 162.595 26.046C162.838 26.326 162.959 26.676 162.959 27.096C162.959 27.7213 162.698 28.216 162.175 28.58C161.653 28.944 160.892 29.126 159.893 29.126Z" fill="white"/>
</svg>
